<svg width="335" height="127" viewBox="0 0 335 127" fill="none" xmlns="http://www.w3.org/2000/svg">
<path d="M88.5919 54.8868L73 55.6054L93.2462 90.4491L103 78.5L88.5919 54.8868Z" fill="#0F9890"/>
<path d="M86.9019 103.845H101.525C125.247 48.041 181.42 15.6237 245.263 43.8329C173.5 -5 101.525 53.317 86.9019 103.845Z" fill="#0F9890"/>
<path d="M153.609 105C142.229 105 133 96.0548 133 84.3918C133 72.7287 142.229 63.7832 153.609 63.7832C164.989 63.7832 174.217 72.7287 174.217 84.3918C174.217 96.0548 164.989 105 153.609 105ZM153.609 96.1681C160.063 96.1681 165.158 91.4689 165.158 84.3918C165.158 77.3146 160.063 72.6154 153.609 72.6154C147.154 72.6154 142.059 77.3146 142.059 84.3918C142.059 91.4689 147.154 96.1681 153.609 96.1681Z" fill="#0F9890"/>
<path d="M199.303 64.5758C207.116 64.5758 213.174 70.6338 213.174 78.1639C213.174 85.6939 207.116 91.7519 199.303 91.7519H193.358V104.208H184.3V64.5758H199.303ZM199.303 83.2594C202.077 83.2594 204.116 81.0514 204.116 78.1639C204.116 75.2764 202.077 73.0684 199.303 73.0684H193.358V83.2594H199.303Z" fill="#0F9890"/>
<path d="M241.311 105C229.931 105 220.702 96.0548 220.702 84.3918C220.702 72.7287 229.931 63.7832 241.311 63.7832C252.691 63.7832 261.919 72.7287 261.919 84.3918C261.919 96.0548 252.691 105 241.311 105ZM241.311 96.1681C247.765 96.1681 252.861 91.4689 252.861 84.3918C252.861 77.3146 247.765 72.6154 241.311 72.6154C234.856 72.6154 229.761 77.3146 229.761 84.3918C229.761 91.4689 234.856 96.1681 241.311 96.1681Z" fill="#0F9890"/>
</svg>
